# xmcd
#
# Track frame offsets:
#	150
#	25418
#	47116
#	67926
#	84268
#	107647
#	125723
#	141844
#	160219
#	177390
#	202553
#	219426
#	234911
#	251932
#
# Disc length: 3582 seconds
# Revision: 1
# Processed by: cddbd v1.5.2PL0 Copyright (c) Steve Scherf et al.
# Submitted via: dBpowerAMP V12.0
#
DISCID=bd0dfc0e
DTITLE=Sara Evans - The Very Best Of Sara Evans
DYEAR=2013
DGENRE=Country
TTITLE0=Born To Fly
TTITLE1=I Could Not Ask For More
TTITLE2=I Keep Looking
TTITLE3=No Place That Far
TTITLE4=You Don't
TTITLE5=A Real Fine Place To Start
TTITLE6=Sweet By And By
TTITLE7=Three Chords And The Truth
TTITLE8=Suds In The Bucket
TTITLE9=Niagra
TTITLE10=Crackers
TTITLE11=Cheatin'
TTITLE12=Never Alone (With Jim Brickman)
TTITLE13=Feels Just Like A Love Song
EXTD=
EXTT0=
EXTT1=
EXTT2=
EXTT3=
EXTT4=
EXTT5=
EXTT6=
EXTT7=
EXTT8=
EXTT9=
EXTT10=
EXTT11=
EXTT12=
EXTT13=
PLAYORDER=
